# MagicaVoxel @ Ephtracy

# group
o 

# material
mtllib Road.mtl
usemtl palette

# normals
vn -1 0 0
vn 1 0 0
vn 0 0 1
vn 0 0 -1
vn 0 -1 0
vn 0 1 0

# texcoords
vt 0.314453 0.5
vt 0.416016 0.5
vt 0.419922 0.5
vt 0.423828 0.5
vt 0.427734 0.5

# verts
v -2 0 2
v -2 0 -2
v -2 3.6 2
v -2 3.6 -2
v -2 3.9 1.6
v -2 3.9 0.5
v -2 3.9 -0.2
v -2 3.9 -1.3
v -2 4 2
v -2 4 1.6
v -2 4 0.5
v -2 4 -0.2
v -2 4 -1.3
v -2 4 -2
v 0.6 3.5 1.9
v 0.6 3.5 1.8
v 0.6 3.6 1.9
v 0.6 3.6 1.8
v -1.9 3.5 1.9
v -1.9 3.5 1.8
v -1.9 3.6 1.9
v -1.9 3.6 1.8
v 2 0 2
v 2 0 -2
v 2 3.6 2
v 2 3.6 -2
v 2 3.9 2
v 2 3.9 -2
v 2 4 2
v 2 4 -2
v -2 0 2
v -2 3.6 2
v -2 4 2
v -1.9 3.9 2
v -1.9 4 2
v 2 0 2
v 2 3.6 2
v 2 3.9 2
v 2 4 2
v -1.9 3.5 1.8
v -1.9 3.6 1.8
v 0.6 3.5 1.8
v 0.6 3.6 1.8
v -1.9 3.5 1.9
v -1.9 3.6 1.9
v 0.6 3.5 1.9
v 0.6 3.6 1.9
v -2 0 -2
v -2 3.6 -2
v -2 4 -2
v -1.9 3.9 -2
v -1.9 4 -2
v 2 0 -2
v 2 3.6 -2
v 2 3.9 -2
v 2 4 -2
v -2 0 2
v 2 0 2
v -2 0 -2
v 2 0 -2
v -1.9 3.6 1.9
v 0.6 3.6 1.9
v -1.9 3.6 1.8
v 0.6 3.6 1.8
v -1.9 3.5 1.9
v 0.6 3.5 1.9
v -1.9 3.5 1.8
v 0.6 3.5 1.8
v -2 4 2
v -1.9 4 2
v 2 4 2
v -1.4 4 1.8
v 1.5 4 1.8
v -2 4 1.6
v -1.9 4 1.6
v -1.8 4 1.6
v 1.5 4 0.7
v 1.8 4 0.7
v -2 4 0.5
v -1.9 4 0.5
v -1.8 4 0.5
v -2 4 -0.2
v -1.9 4 -0.2
v -1.8 4 -0.2
v -2 4 -1.3
v -1.9 4 -1.3
v -1.8 4 -1.3
v -1.4 4 -1.3
v -1.1 4 -1.3
v -1.1 4 -1.8
v 1.8 4 -1.8
v -2 4 -2
v -1.9 4 -2
v 2 4 -2

# faces
f 3/2/1 2/2/1 1/2/1
f 4/2/1 2/2/1 3/2/1
f 5/3/1 4/3/1 3/3/1
f 6/3/1 4/3/1 5/3/1
f 7/3/1 4/3/1 6/3/1
f 8/3/1 4/3/1 7/3/1
f 9/3/1 5/3/1 3/3/1
f 10/4/1 6/4/1 5/4/1
f 10/3/1 5/3/1 9/3/1
f 11/3/1 7/3/1 6/3/1
f 11/4/1 6/4/1 10/4/1
f 12/4/1 8/4/1 7/4/1
f 12/3/1 7/3/1 11/3/1
f 13/3/1 4/3/1 8/3/1
f 13/4/1 8/4/1 12/4/1
f 14/3/1 4/3/1 13/3/1
f 17/2/1 16/2/1 15/2/1
f 18/2/1 16/2/1 17/2/1
f 19/2/2 20/2/2 21/2/2
f 21/2/2 20/2/2 22/2/2
f 23/2/2 24/2/2 25/2/2
f 25/2/2 24/2/2 26/2/2
f 25/3/2 26/3/2 27/3/2
f 27/3/2 26/3/2 28/3/2
f 27/5/2 28/5/2 29/5/2
f 29/5/2 28/5/2 30/5/2
f 34/3/3 33/3/3 32/3/3
f 35/3/3 33/3/3 34/3/3
f 36/2/3 32/2/3 31/2/3
f 37/3/3 34/3/3 32/3/3
f 37/2/3 32/2/3 36/2/3
f 38/5/3 35/5/3 34/5/3
f 38/3/3 34/3/3 37/3/3
f 39/5/3 35/5/3 38/5/3
f 42/2/3 41/2/3 40/2/3
f 43/2/3 41/2/3 42/2/3
f 44/2/4 45/2/4 46/2/4
f 46/2/4 45/2/4 47/2/4
f 49/3/4 50/3/4 51/3/4
f 51/3/4 50/3/4 52/3/4
f 48/2/4 49/2/4 53/2/4
f 49/3/4 51/3/4 54/3/4
f 53/2/4 49/2/4 54/2/4
f 51/5/4 52/5/4 55/5/4
f 54/3/4 51/3/4 55/3/4
f 55/5/4 52/5/4 56/5/4
f 59/2/5 58/2/5 57/2/5
f 60/2/5 58/2/5 59/2/5
f 63/1/5 62/1/5 61/1/5
f 64/1/5 62/1/5 63/1/5
f 65/2/6 66/2/6 67/2/6
f 67/2/6 66/2/6 68/2/6
f 70/5/6 71/5/6 72/5/6
f 72/5/6 71/5/6 73/5/6
f 69/3/6 70/3/6 74/3/6
f 70/5/6 72/5/6 75/5/6
f 74/3/6 70/3/6 75/3/6
f 75/5/6 72/5/6 76/5/6
f 73/5/6 71/5/6 77/5/6
f 72/2/6 73/2/6 77/2/6
f 77/5/6 71/5/6 78/5/6
f 75/4/6 76/4/6 79/4/6
f 74/4/6 75/4/6 79/4/6
f 79/4/6 76/4/6 80/4/6
f 76/5/6 72/5/6 81/5/6
f 80/4/6 76/4/6 81/4/6
f 79/3/6 80/3/6 82/3/6
f 80/5/6 81/5/6 83/5/6
f 82/3/6 80/3/6 83/3/6
f 81/5/6 72/5/6 84/5/6
f 83/5/6 81/5/6 84/5/6
f 82/4/6 83/4/6 85/4/6
f 83/4/6 84/4/6 85/4/6
f 85/4/6 84/4/6 86/4/6
f 84/5/6 72/5/6 87/5/6
f 86/4/6 84/4/6 87/4/6
f 77/2/6 78/2/6 88/2/6
f 87/5/6 72/5/6 88/5/6
f 72/2/6 77/2/6 88/2/6
f 88/2/6 78/2/6 89/2/6
f 86/5/6 87/5/6 90/5/6
f 89/2/6 78/2/6 90/2/6
f 88/5/6 89/5/6 90/5/6
f 87/5/6 88/5/6 90/5/6
f 78/5/6 71/5/6 91/5/6
f 90/2/6 78/2/6 91/2/6
f 85/3/6 86/3/6 92/3/6
f 86/5/6 90/5/6 93/5/6
f 92/3/6 86/3/6 93/3/6
f 90/5/6 91/5/6 93/5/6
f 91/5/6 71/5/6 94/5/6
f 93/5/6 91/5/6 94/5/6
