# MagicaVoxel @ Ephtracy

# group
o 

# material
mtllib Road2.mtl
usemtl palette

# normals
vn -1 0 0
vn 1 0 0
vn 0 0 1
vn 0 0 -1
vn 0 -1 0
vn 0 1 0

# texcoords
vt 0.314453 0.5
vt 0.416016 0.5
vt 0.423828 0.5

# verts
v -2 0 2
v -2 0 -2
v -2 3.9 1.6
v -2 3.9 0.5
v -2 3.9 -0.2
v -2 3.9 -1.3
v -2 4 2
v -2 4 1.6
v -2 4 0.5
v -2 4 -0.2
v -2 4 -1.3
v -2 4 -2
v 0.6 3.5 1.9
v 0.6 3.5 1.8
v 0.6 3.6 1.9
v 0.6 3.6 1.8
v -1.9 3.5 1.9
v -1.9 3.5 1.8
v -1.9 3.6 1.9
v -1.9 3.6 1.8
v 2 0 2
v 2 0 -2
v 2 4 2
v 2 4 -2
v -2 0 2
v -2 4 2
v 2 0 2
v 2 4 2
v -1.9 3.5 1.8
v -1.9 3.6 1.8
v 0.6 3.5 1.8
v 0.6 3.6 1.8
v -1.9 3.5 1.9
v -1.9 3.6 1.9
v 0.6 3.5 1.9
v 0.6 3.6 1.9
v -2 0 -2
v -2 4 -2
v 2 0 -2
v 2 4 -2
v -2 0 2
v 2 0 2
v -2 0 -2
v 2 0 -2
v -1.9 3.6 1.9
v 0.6 3.6 1.9
v -1.9 3.6 1.8
v 0.6 3.6 1.8
v -1.9 3.5 1.9
v 0.6 3.5 1.9
v -1.9 3.5 1.8
v 0.6 3.5 1.8
v -2 4 2
v 2 4 2
v -2 4 1.6
v -1.8 4 1.6
v -2 4 0.5
v -1.8 4 0.5
v -2 4 -0.2
v -1.8 4 -0.2
v -2 4 -1.3
v -1.8 4 -1.3
v -2 4 -2
v 2 4 -2

# faces
f 3/2/1 2/2/1 1/2/1
f 4/2/1 2/2/1 3/2/1
f 5/2/1 2/2/1 4/2/1
f 6/2/1 2/2/1 5/2/1
f 7/2/1 3/2/1 1/2/1
f 8/3/1 4/3/1 3/3/1
f 8/2/1 3/2/1 7/2/1
f 9/2/1 5/2/1 4/2/1
f 9/3/1 4/3/1 8/3/1
f 10/3/1 6/3/1 5/3/1
f 10/2/1 5/2/1 9/2/1
f 11/2/1 2/2/1 6/2/1
f 11/3/1 6/3/1 10/3/1
f 12/2/1 2/2/1 11/2/1
f 15/2/1 14/2/1 13/2/1
f 16/2/1 14/2/1 15/2/1
f 17/2/2 18/2/2 19/2/2
f 19/2/2 18/2/2 20/2/2
f 21/2/2 22/2/2 23/2/2
f 23/2/2 22/2/2 24/2/2
f 27/2/3 26/2/3 25/2/3
f 28/2/3 26/2/3 27/2/3
f 31/2/3 30/2/3 29/2/3
f 32/2/3 30/2/3 31/2/3
f 33/2/4 34/2/4 35/2/4
f 35/2/4 34/2/4 36/2/4
f 37/2/4 38/2/4 39/2/4
f 39/2/4 38/2/4 40/2/4
f 43/2/5 42/2/5 41/2/5
f 44/2/5 42/2/5 43/2/5
f 47/2/5 46/2/5 45/2/5
f 48/2/5 46/2/5 47/2/5
f 49/2/6 50/2/6 51/2/6
f 51/2/6 50/2/6 52/2/6
f 53/2/6 54/2/6 55/2/6
f 55/2/6 54/2/6 56/2/6
f 55/3/6 56/3/6 57/3/6
f 56/2/6 54/2/6 58/2/6
f 57/3/6 56/3/6 58/3/6
f 57/2/6 58/2/6 59/2/6
f 58/2/6 54/2/6 60/2/6
f 59/2/6 58/2/6 60/2/6
f 59/3/6 60/3/6 61/3/6
f 60/2/6 54/2/6 62/2/6
f 61/3/6 60/3/6 62/3/6
f 61/2/6 62/2/6 63/2/6
f 62/2/6 54/2/6 64/2/6
f 63/2/6 62/2/6 64/2/6
